<mxfile host="app.diagrams.net" agent="Mozilla/5.0 (Windows NT 10.0; Win64; x64) AppleWebKit/537.36 (KHTML, like Gecko) Chrome/131.0.0.0 Safari/537.36 Edg/131.0.0.0" version="26.0.6" pages="2">
  <diagram name="A-0" id="6MFfiXwfo-oyCRf7mOeq">
    <mxGraphModel dx="1678" dy="921" grid="1" gridSize="10" guides="1" tooltips="1" connect="1" arrows="1" fold="1" page="1" pageScale="1" pageWidth="827" pageHeight="583" math="0" shadow="0">
      <root>
        <mxCell id="0" />
        <mxCell id="1" parent="0" />
        <mxCell id="bT9LUiyym5RduR45nTak-15" value="" style="group;labelBackgroundColor=none;fontColor=#5C5C5C;" vertex="1" connectable="0" parent="1">
          <mxGeometry x="30" y="110" width="540" height="290" as="geometry" />
        </mxCell>
        <mxCell id="bT9LUiyym5RduR45nTak-1" value="" style="group;labelBackgroundColor=none;fontColor=#5C5C5C;" vertex="1" connectable="0" parent="bT9LUiyym5RduR45nTak-15">
          <mxGeometry x="110" width="430" height="290" as="geometry" />
        </mxCell>
        <mxCell id="bT9LUiyym5RduR45nTak-2" value="&amp;nbsp;Provide and manage ATC services including Voice/data comunications, surveillance, flight data etc&lt;div&gt;&lt;b&gt;(GF-04)&lt;/b&gt;&lt;/div&gt;" style="rounded=0;whiteSpace=wrap;html=1;labelBackgroundColor=none;fillColor=#21C0A5;strokeColor=#006658;fontColor=#5C5C5C;" vertex="1" parent="bT9LUiyym5RduR45nTak-1">
          <mxGeometry x="100" y="80" width="160" height="80" as="geometry" />
        </mxCell>
        <mxCell id="bT9LUiyym5RduR45nTak-13" value="" style="edgeStyle=orthogonalEdgeStyle;rounded=0;orthogonalLoop=1;jettySize=auto;html=1;labelBackgroundColor=none;strokeColor=#006658;fontColor=default;" edge="1" parent="bT9LUiyym5RduR45nTak-1" source="bT9LUiyym5RduR45nTak-5" target="bT9LUiyym5RduR45nTak-2">
          <mxGeometry relative="1" as="geometry" />
        </mxCell>
        <mxCell id="bT9LUiyym5RduR45nTak-5" value="ATC Personnel, A/G and G/G Communications Systems, Surveillance Systems, Flight Data Processing Tools etc" style="text;html=1;align=center;verticalAlign=middle;whiteSpace=wrap;rounded=0;labelBackgroundColor=none;fontColor=#5C5C5C;" vertex="1" parent="bT9LUiyym5RduR45nTak-1">
          <mxGeometry x="80" y="230" width="200" height="60" as="geometry" />
        </mxCell>
        <mxCell id="bT9LUiyym5RduR45nTak-6" value="ICAO Standards, Local Aerodrome Procedures, Safety Regulations, Separation Requirements" style="text;html=1;align=center;verticalAlign=middle;whiteSpace=wrap;rounded=0;labelBackgroundColor=none;fontColor=#5C5C5C;" vertex="1" parent="bT9LUiyym5RduR45nTak-1">
          <mxGeometry x="90" y="-40" width="180" height="60" as="geometry" />
        </mxCell>
        <mxCell id="bT9LUiyym5RduR45nTak-14" value="" style="edgeStyle=orthogonalEdgeStyle;rounded=0;orthogonalLoop=1;jettySize=auto;html=1;labelBackgroundColor=none;strokeColor=#006658;fontColor=default;" edge="1" parent="bT9LUiyym5RduR45nTak-1" source="bT9LUiyym5RduR45nTak-6" target="bT9LUiyym5RduR45nTak-2">
          <mxGeometry relative="1" as="geometry" />
        </mxCell>
        <mxCell id="bT9LUiyym5RduR45nTak-8" value="Clearance and Instructions to Aircraft, Alerts, Updated Flight Data, Log Records etc" style="text;html=1;align=center;verticalAlign=middle;whiteSpace=wrap;rounded=0;labelBackgroundColor=none;fontColor=#5C5C5C;" vertex="1" parent="bT9LUiyym5RduR45nTak-1">
          <mxGeometry x="270" y="70" width="160" height="40" as="geometry" />
        </mxCell>
        <mxCell id="bT9LUiyym5RduR45nTak-7" value="Flight Plans, Surveillance Data (Air and Ground), Meteorological Data, Approach / Departure Data etc" style="text;html=1;align=center;verticalAlign=middle;whiteSpace=wrap;rounded=0;labelBackgroundColor=none;fontColor=#5C5C5C;" vertex="1" parent="bT9LUiyym5RduR45nTak-1">
          <mxGeometry x="-100" y="70" width="190" height="40" as="geometry" />
        </mxCell>
        <mxCell id="bT9LUiyym5RduR45nTak-10" value="" style="endArrow=classic;html=1;rounded=0;entryX=0;entryY=0.5;entryDx=0;entryDy=0;entryPerimeter=0;labelBackgroundColor=none;strokeColor=#006658;fontColor=default;" edge="1" parent="bT9LUiyym5RduR45nTak-15" target="bT9LUiyym5RduR45nTak-2">
          <mxGeometry width="50" height="50" relative="1" as="geometry">
            <mxPoint y="120" as="sourcePoint" />
            <mxPoint x="360" y="270" as="targetPoint" />
          </mxGeometry>
        </mxCell>
        <mxCell id="bT9LUiyym5RduR45nTak-11" value="" style="endArrow=classic;html=1;rounded=0;exitX=1;exitY=0.5;exitDx=0;exitDy=0;labelBackgroundColor=none;strokeColor=#006658;fontColor=default;" edge="1" parent="bT9LUiyym5RduR45nTak-15" source="bT9LUiyym5RduR45nTak-2">
          <mxGeometry width="50" height="50" relative="1" as="geometry">
            <mxPoint x="310" y="280" as="sourcePoint" />
            <mxPoint x="540" y="120" as="targetPoint" />
          </mxGeometry>
        </mxCell>
        <mxCell id="bT9LUiyym5RduR45nTak-24" value="GF-04 Aerodrome Air Traffic Control" style="text;html=1;align=center;verticalAlign=middle;whiteSpace=wrap;rounded=0;fontStyle=5;labelBackgroundColor=none;fontColor=#5C5C5C;" vertex="1" parent="1">
          <mxGeometry x="40" y="20" width="230" height="30" as="geometry" />
        </mxCell>
      </root>
    </mxGraphModel>
  </diagram>
  <diagram id="iDu25y5nmb2ikl4JObiz" name="A-1">
    <mxGraphModel dx="1783" dy="979" grid="1" gridSize="10" guides="1" tooltips="1" connect="1" arrows="1" fold="1" page="1" pageScale="1" pageWidth="3300" pageHeight="2339" math="0" shadow="0">
      <root>
        <mxCell id="0" />
        <mxCell id="1" parent="0" />
        <mxCell id="KcJAImw3coBbb5JSBHg4-1" value="" style="group;" vertex="1" connectable="0" parent="1">
          <mxGeometry x="1620" y="450" width="540" height="290" as="geometry" />
        </mxCell>
        <mxCell id="KcJAImw3coBbb5JSBHg4-2" value="" style="group" vertex="1" connectable="0" parent="KcJAImw3coBbb5JSBHg4-1">
          <mxGeometry x="110" width="430" height="290" as="geometry" />
        </mxCell>
        <mxCell id="KcJAImw3coBbb5JSBHg4-3" value="&amp;nbsp;Provide Aerodrome A/G Control - Voice Communications&lt;div&gt;(GF-04-01)&lt;/div&gt;" style="rounded=0;whiteSpace=wrap;html=1;" vertex="1" parent="KcJAImw3coBbb5JSBHg4-2">
          <mxGeometry x="100" y="80" width="160" height="80" as="geometry" />
        </mxCell>
        <mxCell id="KcJAImw3coBbb5JSBHg4-12" value="" style="edgeStyle=orthogonalEdgeStyle;rounded=0;orthogonalLoop=1;jettySize=auto;html=1;strokeColor=#006658;fontColor=#5C5C5C;fillColor=#21C0A5;" edge="1" parent="KcJAImw3coBbb5JSBHg4-2" source="KcJAImw3coBbb5JSBHg4-5" target="KcJAImw3coBbb5JSBHg4-3">
          <mxGeometry relative="1" as="geometry" />
        </mxCell>
        <mxCell id="KcJAImw3coBbb5JSBHg4-5" value="A/G radio systems and controller headsets&lt;br&gt;Voice logging system&lt;br&gt;Controller workstations&lt;br&gt;Trained ATC personnel" style="text;html=1;align=center;verticalAlign=middle;whiteSpace=wrap;rounded=0;" vertex="1" parent="KcJAImw3coBbb5JSBHg4-2">
          <mxGeometry x="80" y="230" width="200" height="60" as="geometry" />
        </mxCell>
        <mxCell id="KcJAImw3coBbb5JSBHg4-6" value="Local Radio Procedures&lt;br&gt;Frequency Assignments&lt;br&gt;Safety Regulations" style="text;html=1;align=center;verticalAlign=middle;whiteSpace=wrap;rounded=0;" vertex="1" parent="KcJAImw3coBbb5JSBHg4-2">
          <mxGeometry x="90" y="-30" width="180" height="50" as="geometry" />
        </mxCell>
        <mxCell id="KcJAImw3coBbb5JSBHg4-7" value="" style="edgeStyle=orthogonalEdgeStyle;rounded=0;orthogonalLoop=1;jettySize=auto;html=1;strokeColor=#006658;align=center;verticalAlign=middle;fontFamily=Helvetica;fontSize=11;fontColor=#5C5C5C;labelBackgroundColor=default;endArrow=classic;fillColor=#21C0A5;" edge="1" parent="KcJAImw3coBbb5JSBHg4-2" source="KcJAImw3coBbb5JSBHg4-6" target="KcJAImw3coBbb5JSBHg4-3">
          <mxGeometry relative="1" as="geometry" />
        </mxCell>
        <mxCell id="KcJAImw3coBbb5JSBHg4-8" value="Voice instructions and clearance to aircraft&lt;br&gt;ATIS updates&lt;br&gt;Readbacks and confirmation" style="text;html=1;align=center;verticalAlign=middle;whiteSpace=wrap;rounded=0;" vertex="1" parent="KcJAImw3coBbb5JSBHg4-2">
          <mxGeometry x="260" y="65" width="160" height="40" as="geometry" />
        </mxCell>
        <mxCell id="KcJAImw3coBbb5JSBHg4-11" value="" style="endArrow=classic;html=1;rounded=0;exitX=1;exitY=0.5;exitDx=0;exitDy=0;strokeColor=#006658;fillColor=#21C0A5;align=center;verticalAlign=middle;fontFamily=Helvetica;fontSize=11;fontColor=#5C5C5C;labelBackgroundColor=default;edgeStyle=orthogonalEdgeStyle;" edge="1" parent="KcJAImw3coBbb5JSBHg4-1" source="KcJAImw3coBbb5JSBHg4-3">
          <mxGeometry width="50" height="50" relative="1" as="geometry">
            <mxPoint x="310" y="280" as="sourcePoint" />
            <mxPoint x="490" y="120" as="targetPoint" />
          </mxGeometry>
        </mxCell>
        <mxCell id="KcJAImw3coBbb5JSBHg4-14" value="" style="edgeStyle=orthogonalEdgeStyle;rounded=0;orthogonalLoop=1;jettySize=auto;html=1;strokeColor=#006658;fontColor=#5C5C5C;fillColor=#21C0A5;" edge="1" parent="KcJAImw3coBbb5JSBHg4-1" target="KcJAImw3coBbb5JSBHg4-3">
          <mxGeometry relative="1" as="geometry">
            <mxPoint x="80" y="120" as="sourcePoint" />
          </mxGeometry>
        </mxCell>
        <mxCell id="KcJAImw3coBbb5JSBHg4-9" value="Pilot Requests (calls from aircraft)&lt;br&gt;Meteorological updates (as needed)&lt;br&gt;ATIS content" style="text;html=1;align=center;verticalAlign=middle;whiteSpace=wrap;rounded=0;" vertex="1" parent="KcJAImw3coBbb5JSBHg4-1">
          <mxGeometry x="-23" y="75" width="210" height="50" as="geometry" />
        </mxCell>
        <mxCell id="KcJAImw3coBbb5JSBHg4-15" value="" style="group;" vertex="1" connectable="0" parent="1">
          <mxGeometry x="1040" y="490" width="590" height="290" as="geometry" />
        </mxCell>
        <mxCell id="KcJAImw3coBbb5JSBHg4-16" value="" style="group" vertex="1" connectable="0" parent="KcJAImw3coBbb5JSBHg4-15">
          <mxGeometry x="110" width="480" height="290" as="geometry" />
        </mxCell>
        <mxCell id="KcJAImw3coBbb5JSBHg4-17" value="Manage Aerodrome Flight Data&lt;br&gt;(GF-04-06)" style="rounded=0;whiteSpace=wrap;html=1;" vertex="1" parent="KcJAImw3coBbb5JSBHg4-16">
          <mxGeometry x="100" y="80" width="160" height="80" as="geometry" />
        </mxCell>
        <mxCell id="KcJAImw3coBbb5JSBHg4-18" value="" style="edgeStyle=orthogonalEdgeStyle;rounded=0;orthogonalLoop=1;jettySize=auto;html=1;strokeColor=#006658;fontColor=#5C5C5C;fillColor=#21C0A5;" edge="1" parent="KcJAImw3coBbb5JSBHg4-16" source="KcJAImw3coBbb5JSBHg4-19" target="KcJAImw3coBbb5JSBHg4-17">
          <mxGeometry relative="1" as="geometry" />
        </mxCell>
        <mxCell id="KcJAImw3coBbb5JSBHg4-19" value="Flight Data Processing System&lt;div&gt;Controller Displays&lt;/div&gt;&lt;div&gt;Personnel updating and cross-checking data&lt;/div&gt;" style="text;html=1;align=center;verticalAlign=middle;whiteSpace=wrap;rounded=0;" vertex="1" parent="KcJAImw3coBbb5JSBHg4-16">
          <mxGeometry x="80" y="230" width="200" height="60" as="geometry" />
        </mxCell>
        <mxCell id="KcJAImw3coBbb5JSBHg4-20" value="Flight data handling procedures&lt;br&gt;Local SOPs" style="text;html=1;align=center;verticalAlign=middle;whiteSpace=wrap;rounded=0;" vertex="1" parent="KcJAImw3coBbb5JSBHg4-16">
          <mxGeometry x="90" y="-30" width="180" height="50" as="geometry" />
        </mxCell>
        <mxCell id="KcJAImw3coBbb5JSBHg4-21" value="" style="edgeStyle=orthogonalEdgeStyle;rounded=0;orthogonalLoop=1;jettySize=auto;html=1;strokeColor=#006658;align=center;verticalAlign=middle;fontFamily=Helvetica;fontSize=11;fontColor=#5C5C5C;labelBackgroundColor=default;endArrow=classic;fillColor=#21C0A5;" edge="1" parent="KcJAImw3coBbb5JSBHg4-16" source="KcJAImw3coBbb5JSBHg4-20" target="KcJAImw3coBbb5JSBHg4-17">
          <mxGeometry relative="1" as="geometry" />
        </mxCell>
        <mxCell id="KcJAImw3coBbb5JSBHg4-22" value="Updated Flight strips for controllers" style="text;html=1;align=center;verticalAlign=middle;whiteSpace=wrap;rounded=0;" vertex="1" parent="KcJAImw3coBbb5JSBHg4-16">
          <mxGeometry x="270" y="111" width="210" height="40" as="geometry" />
        </mxCell>
        <mxCell id="KcJAImw3coBbb5JSBHg4-24" value="" style="endArrow=classic;html=1;rounded=0;exitX=1;exitY=0.5;exitDx=0;exitDy=0;strokeColor=#006658;align=center;verticalAlign=middle;fontFamily=Helvetica;fontSize=11;fontColor=#5C5C5C;labelBackgroundColor=default;edgeStyle=orthogonalEdgeStyle;fillColor=#21C0A5;" edge="1" parent="KcJAImw3coBbb5JSBHg4-15" source="KcJAImw3coBbb5JSBHg4-17">
          <mxGeometry width="50" height="50" relative="1" as="geometry">
            <mxPoint x="310" y="280" as="sourcePoint" />
            <mxPoint x="540" y="120" as="targetPoint" />
          </mxGeometry>
        </mxCell>
        <mxCell id="KcJAImw3coBbb5JSBHg4-25" value="" style="edgeStyle=orthogonalEdgeStyle;rounded=0;orthogonalLoop=1;jettySize=auto;html=1;strokeColor=#006658;fontColor=#5C5C5C;fillColor=#21C0A5;" edge="1" parent="KcJAImw3coBbb5JSBHg4-15" target="KcJAImw3coBbb5JSBHg4-17">
          <mxGeometry relative="1" as="geometry">
            <mxPoint x="80" y="120" as="sourcePoint" />
          </mxGeometry>
        </mxCell>
        <mxCell id="KcJAImw3coBbb5JSBHg4-23" value="Flight Plans&lt;br&gt;Approach / Departure information from external approach units" style="text;html=1;align=center;verticalAlign=middle;whiteSpace=wrap;rounded=0;" vertex="1" parent="KcJAImw3coBbb5JSBHg4-15">
          <mxGeometry x="-40" y="50" width="210" height="77" as="geometry" />
        </mxCell>
        <mxCell id="KcJAImw3coBbb5JSBHg4-26" value="" style="endArrow=classic;html=1;rounded=0;strokeColor=#006658;fontColor=#5C5C5C;fillColor=#21C0A5;entryX=0;entryY=0.75;entryDx=0;entryDy=0;exitX=1;exitY=0.25;exitDx=0;exitDy=0;align=center;verticalAlign=middle;fontFamily=Helvetica;fontSize=11;labelBackgroundColor=default;edgeStyle=orthogonalEdgeStyle;" edge="1" parent="1" source="KcJAImw3coBbb5JSBHg4-17" target="KcJAImw3coBbb5JSBHg4-3">
          <mxGeometry width="50" height="50" relative="1" as="geometry">
            <mxPoint x="1190" y="750" as="sourcePoint" />
            <mxPoint x="950" y="480" as="targetPoint" />
          </mxGeometry>
        </mxCell>
        <mxCell id="KcJAImw3coBbb5JSBHg4-27" value="Flight Data" style="edgeLabel;html=1;align=center;verticalAlign=middle;resizable=0;points=[];strokeColor=#006658;fontColor=#5C5C5C;fillColor=#21C0A5;fontSize=11;rounded=0;fontFamily=Helvetica;labelBackgroundColor=default;" vertex="1" connectable="0" parent="KcJAImw3coBbb5JSBHg4-26">
          <mxGeometry x="0.0092" y="-1" relative="1" as="geometry">
            <mxPoint x="48" y="-1" as="offset" />
          </mxGeometry>
        </mxCell>
        <mxCell id="KcJAImw3coBbb5JSBHg4-28" value="" style="group;" vertex="1" connectable="0" parent="1">
          <mxGeometry x="1630" y="100" width="540" height="290" as="geometry" />
        </mxCell>
        <mxCell id="KcJAImw3coBbb5JSBHg4-29" value="" style="group" vertex="1" connectable="0" parent="KcJAImw3coBbb5JSBHg4-28">
          <mxGeometry x="110" width="430" height="290" as="geometry" />
        </mxCell>
        <mxCell id="KcJAImw3coBbb5JSBHg4-30" value="&amp;nbsp;Provide Aerodrome G/G Control - Voice Communications&lt;div&gt;(GF-04-02)&lt;/div&gt;" style="rounded=0;whiteSpace=wrap;html=1;" vertex="1" parent="KcJAImw3coBbb5JSBHg4-29">
          <mxGeometry x="100" y="80" width="160" height="80" as="geometry" />
        </mxCell>
        <mxCell id="KcJAImw3coBbb5JSBHg4-31" value="" style="edgeStyle=orthogonalEdgeStyle;rounded=0;orthogonalLoop=1;jettySize=auto;html=1;strokeColor=#006658;fontColor=#5C5C5C;fillColor=#21C0A5;" edge="1" parent="KcJAImw3coBbb5JSBHg4-29" target="KcJAImw3coBbb5JSBHg4-30">
          <mxGeometry relative="1" as="geometry">
            <mxPoint x="180" y="230" as="sourcePoint" />
          </mxGeometry>
        </mxCell>
        <mxCell id="KcJAImw3coBbb5JSBHg4-32" value="G/G radio or phone lines&lt;br&gt;Inter-facility network&lt;br&gt;Controller workstations&lt;br&gt;Trained ATC personnel&lt;br&gt;Voice logging system" style="text;html=1;align=center;verticalAlign=middle;whiteSpace=wrap;rounded=0;" vertex="1" parent="KcJAImw3coBbb5JSBHg4-29">
          <mxGeometry x="80" y="230" width="200" height="60" as="geometry" />
        </mxCell>
        <mxCell id="KcJAImw3coBbb5JSBHg4-33" value="Inter-facility coordination procedures&lt;br&gt;Standard phraseology and safety rules" style="text;html=1;align=center;verticalAlign=middle;whiteSpace=wrap;rounded=0;" vertex="1" parent="KcJAImw3coBbb5JSBHg4-29">
          <mxGeometry x="75" y="-30" width="210" height="50" as="geometry" />
        </mxCell>
        <mxCell id="KcJAImw3coBbb5JSBHg4-34" value="" style="edgeStyle=orthogonalEdgeStyle;rounded=0;orthogonalLoop=1;jettySize=auto;html=1;strokeColor=#006658;align=center;verticalAlign=middle;fontFamily=Helvetica;fontSize=11;fontColor=#5C5C5C;labelBackgroundColor=default;endArrow=classic;fillColor=#21C0A5;" edge="1" parent="KcJAImw3coBbb5JSBHg4-29" source="KcJAImw3coBbb5JSBHg4-33" target="KcJAImw3coBbb5JSBHg4-30">
          <mxGeometry relative="1" as="geometry" />
        </mxCell>
        <mxCell id="KcJAImw3coBbb5JSBHg4-35" value="Voice instructions/updates to ground operators or other ATC Facilities&lt;br&gt;Voice Communication Logs" style="text;html=1;align=center;verticalAlign=middle;whiteSpace=wrap;rounded=0;" vertex="1" parent="KcJAImw3coBbb5JSBHg4-29">
          <mxGeometry x="270" y="70" width="160" height="40" as="geometry" />
        </mxCell>
        <mxCell id="KcJAImw3coBbb5JSBHg4-37" value="" style="endArrow=classic;html=1;rounded=0;exitX=1;exitY=0.5;exitDx=0;exitDy=0;strokeColor=#006658;align=center;verticalAlign=middle;fontFamily=Helvetica;fontSize=11;fontColor=#5C5C5C;labelBackgroundColor=default;edgeStyle=orthogonalEdgeStyle;fillColor=#21C0A5;" edge="1" parent="KcJAImw3coBbb5JSBHg4-28" source="KcJAImw3coBbb5JSBHg4-30">
          <mxGeometry width="50" height="50" relative="1" as="geometry">
            <mxPoint x="310" y="280" as="sourcePoint" />
            <mxPoint x="540" y="120" as="targetPoint" />
          </mxGeometry>
        </mxCell>
        <mxCell id="KcJAImw3coBbb5JSBHg4-38" value="" style="edgeStyle=orthogonalEdgeStyle;rounded=0;orthogonalLoop=1;jettySize=auto;html=1;strokeColor=#006658;fontColor=#5C5C5C;fillColor=#21C0A5;" edge="1" parent="KcJAImw3coBbb5JSBHg4-28" target="KcJAImw3coBbb5JSBHg4-30">
          <mxGeometry relative="1" as="geometry">
            <mxPoint x="80" y="120" as="sourcePoint" />
          </mxGeometry>
        </mxCell>
        <mxCell id="KcJAImw3coBbb5JSBHg4-36" value="Coordination requests from other ATC units (Approach, Tower, Ground Ops)" style="text;html=1;align=center;verticalAlign=middle;whiteSpace=wrap;rounded=0;" vertex="1" parent="KcJAImw3coBbb5JSBHg4-28">
          <mxGeometry x="-26" y="70" width="210" height="60" as="geometry" />
        </mxCell>
        <mxCell id="KcJAImw3coBbb5JSBHg4-39" value="" style="endArrow=classic;html=1;rounded=0;strokeColor=#006658;fontColor=#5C5C5C;fillColor=#21C0A5;entryX=0;entryY=0.75;entryDx=0;entryDy=0;exitX=1;exitY=0.25;exitDx=0;exitDy=0;align=center;verticalAlign=middle;fontFamily=Helvetica;fontSize=11;labelBackgroundColor=default;edgeStyle=orthogonalEdgeStyle;" edge="1" parent="1" source="KcJAImw3coBbb5JSBHg4-17" target="KcJAImw3coBbb5JSBHg4-30">
          <mxGeometry width="50" height="50" relative="1" as="geometry">
            <mxPoint x="1100" y="775" as="sourcePoint" />
            <mxPoint x="1770" y="460" as="targetPoint" />
            <Array as="points">
              <mxPoint x="1590" y="590" />
              <mxPoint x="1590" y="240" />
            </Array>
          </mxGeometry>
        </mxCell>
        <mxCell id="KcJAImw3coBbb5JSBHg4-40" value="Flight Data" style="edgeLabel;html=1;align=center;verticalAlign=middle;resizable=0;points=[];strokeColor=#006658;fontColor=#5C5C5C;fillColor=#21C0A5;fontSize=11;rounded=0;fontFamily=Helvetica;labelBackgroundColor=default;" vertex="1" connectable="0" parent="KcJAImw3coBbb5JSBHg4-39">
          <mxGeometry x="0.0092" y="-1" relative="1" as="geometry">
            <mxPoint x="-17" y="16" as="offset" />
          </mxGeometry>
        </mxCell>
        <mxCell id="KcJAImw3coBbb5JSBHg4-41" value="" style="group;" vertex="1" connectable="0" parent="1">
          <mxGeometry x="1250" y="880" width="540" height="290" as="geometry" />
        </mxCell>
        <mxCell id="KcJAImw3coBbb5JSBHg4-42" value="" style="group" vertex="1" connectable="0" parent="KcJAImw3coBbb5JSBHg4-41">
          <mxGeometry x="110" width="430" height="290" as="geometry" />
        </mxCell>
        <mxCell id="KcJAImw3coBbb5JSBHg4-43" value="Provide Aerodrome Control Data Communications&lt;br&gt;(GF-04-03)" style="rounded=0;whiteSpace=wrap;html=1;" vertex="1" parent="KcJAImw3coBbb5JSBHg4-42">
          <mxGeometry x="100" y="80" width="160" height="80" as="geometry" />
        </mxCell>
        <mxCell id="KcJAImw3coBbb5JSBHg4-44" value="" style="edgeStyle=orthogonalEdgeStyle;rounded=0;orthogonalLoop=1;jettySize=auto;html=1;strokeColor=#006658;fontColor=#5C5C5C;fillColor=#21C0A5;" edge="1" parent="KcJAImw3coBbb5JSBHg4-42" target="KcJAImw3coBbb5JSBHg4-43">
          <mxGeometry relative="1" as="geometry">
            <mxPoint x="180" y="190" as="sourcePoint" />
          </mxGeometry>
        </mxCell>
        <mxCell id="KcJAImw3coBbb5JSBHg4-45" value="Data communication system&lt;br&gt;Controller workstations&lt;br&gt;Software" style="text;html=1;align=center;verticalAlign=middle;whiteSpace=wrap;rounded=0;" vertex="1" parent="KcJAImw3coBbb5JSBHg4-42">
          <mxGeometry x="80" y="184" width="200" height="60" as="geometry" />
        </mxCell>
        <mxCell id="KcJAImw3coBbb5JSBHg4-46" value="Data communication standards&lt;br&gt;Local Procedures" style="text;html=1;align=center;verticalAlign=middle;whiteSpace=wrap;rounded=0;" vertex="1" parent="KcJAImw3coBbb5JSBHg4-42">
          <mxGeometry x="90" y="-30" width="180" height="50" as="geometry" />
        </mxCell>
        <mxCell id="KcJAImw3coBbb5JSBHg4-47" value="" style="edgeStyle=orthogonalEdgeStyle;rounded=0;orthogonalLoop=1;jettySize=auto;html=1;strokeColor=#006658;align=center;verticalAlign=middle;fontFamily=Helvetica;fontSize=11;fontColor=#5C5C5C;labelBackgroundColor=default;endArrow=classic;fillColor=#21C0A5;" edge="1" parent="KcJAImw3coBbb5JSBHg4-42" source="KcJAImw3coBbb5JSBHg4-46" target="KcJAImw3coBbb5JSBHg4-43">
          <mxGeometry relative="1" as="geometry" />
        </mxCell>
        <mxCell id="KcJAImw3coBbb5JSBHg4-48" value="Digital messages to aircraft or other facilities" style="text;html=1;align=center;verticalAlign=middle;whiteSpace=wrap;rounded=0;" vertex="1" parent="KcJAImw3coBbb5JSBHg4-42">
          <mxGeometry x="270" y="117" width="160" height="40" as="geometry" />
        </mxCell>
        <mxCell id="KcJAImw3coBbb5JSBHg4-49" value="Approach/departure messages from external units" style="text;html=1;align=center;verticalAlign=middle;whiteSpace=wrap;rounded=0;" vertex="1" parent="KcJAImw3coBbb5JSBHg4-42">
          <mxGeometry x="-117" y="75" width="167" height="47" as="geometry" />
        </mxCell>
        <mxCell id="KcJAImw3coBbb5JSBHg4-50" value="" style="endArrow=classic;html=1;rounded=0;exitX=1;exitY=0.5;exitDx=0;exitDy=0;strokeColor=#006658;align=center;verticalAlign=middle;fontFamily=Helvetica;fontSize=11;fontColor=#5C5C5C;labelBackgroundColor=default;edgeStyle=orthogonalEdgeStyle;fillColor=#21C0A5;" edge="1" parent="KcJAImw3coBbb5JSBHg4-41" source="KcJAImw3coBbb5JSBHg4-43">
          <mxGeometry width="50" height="50" relative="1" as="geometry">
            <mxPoint x="310" y="280" as="sourcePoint" />
            <mxPoint x="540" y="120" as="targetPoint" />
          </mxGeometry>
        </mxCell>
        <mxCell id="KcJAImw3coBbb5JSBHg4-51" value="" style="edgeStyle=orthogonalEdgeStyle;rounded=0;orthogonalLoop=1;jettySize=auto;html=1;strokeColor=#006658;fontColor=#5C5C5C;fillColor=#21C0A5;" edge="1" parent="KcJAImw3coBbb5JSBHg4-41" target="KcJAImw3coBbb5JSBHg4-43">
          <mxGeometry relative="1" as="geometry">
            <mxPoint x="80" y="120" as="sourcePoint" />
          </mxGeometry>
        </mxCell>
        <mxCell id="KcJAImw3coBbb5JSBHg4-52" value="" style="endArrow=classic;html=1;rounded=0;strokeColor=#006658;fontColor=#5C5C5C;fillColor=#21C0A5;entryX=0;entryY=0.25;entryDx=0;entryDy=0;exitX=1;exitY=0.75;exitDx=0;exitDy=0;align=center;verticalAlign=middle;fontFamily=Helvetica;fontSize=11;labelBackgroundColor=default;edgeStyle=orthogonalEdgeStyle;" edge="1" parent="1" source="KcJAImw3coBbb5JSBHg4-17" target="KcJAImw3coBbb5JSBHg4-43">
          <mxGeometry width="50" height="50" relative="1" as="geometry">
            <mxPoint x="1100" y="775" as="sourcePoint" />
            <mxPoint x="1968" y="440" as="targetPoint" />
            <Array as="points">
              <mxPoint x="1420" y="630" />
              <mxPoint x="1420" y="980" />
            </Array>
          </mxGeometry>
        </mxCell>
        <mxCell id="KcJAImw3coBbb5JSBHg4-53" value="Flight Data" style="edgeLabel;html=1;align=center;verticalAlign=middle;resizable=0;points=[];strokeColor=#006658;fontColor=#5C5C5C;fillColor=#21C0A5;fontSize=11;rounded=0;fontFamily=Helvetica;labelBackgroundColor=default;" vertex="1" connectable="0" parent="KcJAImw3coBbb5JSBHg4-52">
          <mxGeometry x="0.0092" y="-1" relative="1" as="geometry">
            <mxPoint x="-10" y="-14" as="offset" />
          </mxGeometry>
        </mxCell>
        <mxCell id="KcJAImw3coBbb5JSBHg4-56" value="" style="group;" vertex="1" connectable="0" parent="1">
          <mxGeometry x="640" y="810" width="540" height="290" as="geometry" />
        </mxCell>
        <mxCell id="KcJAImw3coBbb5JSBHg4-57" value="" style="group" vertex="1" connectable="0" parent="KcJAImw3coBbb5JSBHg4-56">
          <mxGeometry x="110" width="430" height="290" as="geometry" />
        </mxCell>
        <mxCell id="KcJAImw3coBbb5JSBHg4-58" value="Manage Aerodrome Air Surveillance Data&lt;br&gt;(GF-04-04)" style="rounded=0;whiteSpace=wrap;html=1;" vertex="1" parent="KcJAImw3coBbb5JSBHg4-57">
          <mxGeometry x="100" y="80" width="160" height="80" as="geometry" />
        </mxCell>
        <mxCell id="KcJAImw3coBbb5JSBHg4-59" value="" style="edgeStyle=orthogonalEdgeStyle;rounded=0;orthogonalLoop=1;jettySize=auto;html=1;strokeColor=#006658;fontColor=#5C5C5C;fillColor=#21C0A5;" edge="1" parent="KcJAImw3coBbb5JSBHg4-57" source="KcJAImw3coBbb5JSBHg4-60" target="KcJAImw3coBbb5JSBHg4-58">
          <mxGeometry relative="1" as="geometry" />
        </mxCell>
        <mxCell id="KcJAImw3coBbb5JSBHg4-60" value="Surveillance displays, trackers&lt;br&gt;ADS-B ground stations&lt;br&gt;Controller workstations" style="text;html=1;align=center;verticalAlign=middle;whiteSpace=wrap;rounded=0;" vertex="1" parent="KcJAImw3coBbb5JSBHg4-57">
          <mxGeometry x="80" y="230" width="200" height="60" as="geometry" />
        </mxCell>
        <mxCell id="KcJAImw3coBbb5JSBHg4-61" value="Local radar coverage constraints&lt;br&gt;Separation requirements&lt;br&gt;Safety Rules" style="text;html=1;align=center;verticalAlign=middle;whiteSpace=wrap;rounded=0;" vertex="1" parent="KcJAImw3coBbb5JSBHg4-57">
          <mxGeometry x="75" y="-30" width="210" height="50" as="geometry" />
        </mxCell>
        <mxCell id="KcJAImw3coBbb5JSBHg4-62" value="" style="edgeStyle=orthogonalEdgeStyle;rounded=0;orthogonalLoop=1;jettySize=auto;html=1;strokeColor=#006658;align=center;verticalAlign=middle;fontFamily=Helvetica;fontSize=11;fontColor=#5C5C5C;labelBackgroundColor=default;endArrow=classic;fillColor=#21C0A5;" edge="1" parent="KcJAImw3coBbb5JSBHg4-57" source="KcJAImw3coBbb5JSBHg4-61" target="KcJAImw3coBbb5JSBHg4-58">
          <mxGeometry relative="1" as="geometry" />
        </mxCell>
        <mxCell id="KcJAImw3coBbb5JSBHg4-65" value="" style="edgeStyle=orthogonalEdgeStyle;rounded=0;orthogonalLoop=1;jettySize=auto;html=1;strokeColor=#006658;fontColor=#5C5C5C;fillColor=#21C0A5;" edge="1" parent="KcJAImw3coBbb5JSBHg4-56" target="KcJAImw3coBbb5JSBHg4-58">
          <mxGeometry relative="1" as="geometry">
            <mxPoint x="80" y="120" as="sourcePoint" />
          </mxGeometry>
        </mxCell>
        <mxCell id="KcJAImw3coBbb5JSBHg4-66" value="Radar feeds (Primary and Secondary)&lt;br&gt;Broadcast (ADS-B) data&lt;br&gt;System track data from ATM system" style="text;html=1;align=center;verticalAlign=middle;whiteSpace=wrap;rounded=0;" vertex="1" parent="KcJAImw3coBbb5JSBHg4-56">
          <mxGeometry x="-10" y="70" width="210" height="60" as="geometry" />
        </mxCell>
        <mxCell id="KcJAImw3coBbb5JSBHg4-64" value="" style="endArrow=classic;html=1;rounded=0;exitX=1;exitY=0.5;exitDx=0;exitDy=0;entryX=0;entryY=0.75;entryDx=0;entryDy=0;strokeColor=#006658;align=center;verticalAlign=middle;fontFamily=Helvetica;fontSize=11;fontColor=#5C5C5C;labelBackgroundColor=default;edgeStyle=orthogonalEdgeStyle;fillColor=#21C0A5;" edge="1" parent="1" source="KcJAImw3coBbb5JSBHg4-58" target="KcJAImw3coBbb5JSBHg4-17">
          <mxGeometry width="50" height="50" relative="1" as="geometry">
            <mxPoint x="940" y="500" as="sourcePoint" />
            <mxPoint x="1170" y="340" as="targetPoint" />
          </mxGeometry>
        </mxCell>
        <mxCell id="KcJAImw3coBbb5JSBHg4-67" value="Track Data" style="edgeLabel;html=1;align=center;verticalAlign=middle;resizable=0;points=[];strokeColor=#006658;fontColor=#5C5C5C;fillColor=#21C0A5;rounded=0;fontFamily=Helvetica;fontSize=11;labelBackgroundColor=default;" vertex="1" connectable="0" parent="KcJAImw3coBbb5JSBHg4-64">
          <mxGeometry x="0.1035" y="5" relative="1" as="geometry">
            <mxPoint as="offset" />
          </mxGeometry>
        </mxCell>
        <mxCell id="etPkwMSOkK_ckMGv--gX-1" value="" style="endArrow=classic;html=1;rounded=0;strokeColor=#006658;align=center;verticalAlign=middle;fontFamily=Helvetica;fontSize=11;fontColor=#5C5C5C;labelBackgroundColor=default;edgeStyle=orthogonalEdgeStyle;fillColor=#21C0A5;entryX=0;entryY=0.75;entryDx=0;entryDy=0;exitX=1;exitY=0.75;exitDx=0;exitDy=0;" edge="1" parent="1" source="KcJAImw3coBbb5JSBHg4-43" target="KcJAImw3coBbb5JSBHg4-17">
          <mxGeometry width="50" height="50" relative="1" as="geometry">
            <mxPoint x="1310" y="1080" as="sourcePoint" />
            <mxPoint x="1360" y="1030" as="targetPoint" />
            <Array as="points">
              <mxPoint x="1640" y="1020" />
              <mxPoint x="1640" y="1140" />
              <mxPoint x="1170" y="1140" />
              <mxPoint x="1170" y="630" />
            </Array>
          </mxGeometry>
        </mxCell>
        <mxCell id="etPkwMSOkK_ckMGv--gX-2" value="Updated Flight Data" style="edgeLabel;html=1;align=center;verticalAlign=middle;resizable=0;points=[];strokeColor=#006658;fontFamily=Helvetica;fontSize=11;fontColor=#5C5C5C;labelBackgroundColor=default;fillColor=#21C0A5;" vertex="1" connectable="0" parent="etPkwMSOkK_ckMGv--gX-1">
          <mxGeometry x="0.3843" y="-2" relative="1" as="geometry">
            <mxPoint x="98" y="220" as="offset" />
          </mxGeometry>
        </mxCell>
        <mxCell id="etPkwMSOkK_ckMGv--gX-3" value="" style="group;" vertex="1" connectable="0" parent="1">
          <mxGeometry x="680" y="110" width="540" height="290" as="geometry" />
        </mxCell>
        <mxCell id="etPkwMSOkK_ckMGv--gX-4" value="" style="group" vertex="1" connectable="0" parent="etPkwMSOkK_ckMGv--gX-3">
          <mxGeometry x="110" width="430" height="290" as="geometry" />
        </mxCell>
        <mxCell id="etPkwMSOkK_ckMGv--gX-5" value="Aerodrome Tactical Flow Management&lt;br&gt;(GF-04-10)" style="rounded=0;whiteSpace=wrap;html=1;" vertex="1" parent="etPkwMSOkK_ckMGv--gX-4">
          <mxGeometry x="100" y="80" width="160" height="80" as="geometry" />
        </mxCell>
        <mxCell id="etPkwMSOkK_ckMGv--gX-6" value="" style="edgeStyle=orthogonalEdgeStyle;rounded=0;orthogonalLoop=1;jettySize=auto;html=1;strokeColor=#006658;fontColor=#5C5C5C;fillColor=#21C0A5;" edge="1" parent="etPkwMSOkK_ckMGv--gX-4" source="etPkwMSOkK_ckMGv--gX-7" target="etPkwMSOkK_ckMGv--gX-5">
          <mxGeometry relative="1" as="geometry" />
        </mxCell>
        <mxCell id="etPkwMSOkK_ckMGv--gX-7" value="Flow Management system&lt;div&gt;Controller Workstation&lt;/div&gt;" style="text;html=1;align=center;verticalAlign=middle;whiteSpace=wrap;rounded=0;" vertex="1" parent="etPkwMSOkK_ckMGv--gX-4">
          <mxGeometry x="80" y="230" width="200" height="40" as="geometry" />
        </mxCell>
        <mxCell id="etPkwMSOkK_ckMGv--gX-8" value="Flow management procedures&lt;br&gt;Local sequencing rules" style="text;html=1;align=center;verticalAlign=middle;whiteSpace=wrap;rounded=0;" vertex="1" parent="etPkwMSOkK_ckMGv--gX-4">
          <mxGeometry x="75" y="-30" width="210" height="50" as="geometry" />
        </mxCell>
        <mxCell id="etPkwMSOkK_ckMGv--gX-9" value="" style="edgeStyle=orthogonalEdgeStyle;rounded=0;orthogonalLoop=1;jettySize=auto;html=1;strokeColor=#006658;align=center;verticalAlign=middle;fontFamily=Helvetica;fontSize=11;fontColor=#5C5C5C;labelBackgroundColor=default;endArrow=classic;fillColor=#21C0A5;" edge="1" parent="etPkwMSOkK_ckMGv--gX-4" source="etPkwMSOkK_ckMGv--gX-8" target="etPkwMSOkK_ckMGv--gX-5">
          <mxGeometry relative="1" as="geometry" />
        </mxCell>
        <mxCell id="etPkwMSOkK_ckMGv--gX-11" value="Arrival/Departure Schedules&lt;br&gt;Approach Data&lt;br&gt;Runway availability" style="text;html=1;align=center;verticalAlign=middle;whiteSpace=wrap;rounded=0;" vertex="1" parent="etPkwMSOkK_ckMGv--gX-4">
          <mxGeometry x="-100" y="70" width="210" height="50" as="geometry" />
        </mxCell>
        <mxCell id="etPkwMSOkK_ckMGv--gX-30" value="" style="endArrow=classic;html=1;rounded=0;strokeColor=#006658;align=center;verticalAlign=middle;fontFamily=Helvetica;fontSize=11;fontColor=#5C5C5C;labelBackgroundColor=default;edgeStyle=orthogonalEdgeStyle;fillColor=#21C0A5;entryX=0.02;entryY=0.622;entryDx=0;entryDy=0;entryPerimeter=0;" edge="1" parent="etPkwMSOkK_ckMGv--gX-4">
          <mxGeometry width="50" height="50" relative="1" as="geometry">
            <mxPoint x="-63.200000000000045" y="120.25" as="sourcePoint" />
            <mxPoint x="99.99999999999977" y="120.00999999999999" as="targetPoint" />
          </mxGeometry>
        </mxCell>
        <mxCell id="etPkwMSOkK_ckMGv--gX-12" value="" style="endArrow=classic;html=1;rounded=0;strokeColor=#006658;align=center;verticalAlign=middle;fontFamily=Helvetica;fontSize=11;fontColor=#5C5C5C;labelBackgroundColor=default;edgeStyle=orthogonalEdgeStyle;fillColor=#21C0A5;exitX=1;exitY=0.75;exitDx=0;exitDy=0;entryX=0;entryY=0.25;entryDx=0;entryDy=0;" edge="1" parent="1" source="etPkwMSOkK_ckMGv--gX-5" target="KcJAImw3coBbb5JSBHg4-17">
          <mxGeometry width="50" height="50" relative="1" as="geometry">
            <mxPoint x="1210" y="650" as="sourcePoint" />
            <mxPoint x="1230" y="590" as="targetPoint" />
            <Array as="points">
              <mxPoint x="1220" y="250" />
              <mxPoint x="1220" y="590" />
            </Array>
          </mxGeometry>
        </mxCell>
        <mxCell id="etPkwMSOkK_ckMGv--gX-13" value="Updated Flight Data" style="edgeLabel;html=1;align=center;verticalAlign=middle;resizable=0;points=[];strokeColor=#006658;fontFamily=Helvetica;fontSize=11;fontColor=#5C5C5C;labelBackgroundColor=default;fillColor=#21C0A5;" vertex="1" connectable="0" parent="etPkwMSOkK_ckMGv--gX-12">
          <mxGeometry x="0.104" y="-4" relative="1" as="geometry">
            <mxPoint y="-1" as="offset" />
          </mxGeometry>
        </mxCell>
        <mxCell id="etPkwMSOkK_ckMGv--gX-14" value="" style="endArrow=classic;html=1;rounded=0;strokeColor=#006658;align=center;verticalAlign=middle;fontFamily=Helvetica;fontSize=11;fontColor=#5C5C5C;labelBackgroundColor=default;edgeStyle=orthogonalEdgeStyle;fillColor=#21C0A5;exitX=1;exitY=0.375;exitDx=0;exitDy=0;exitPerimeter=0;entryX=0;entryY=0.25;entryDx=0;entryDy=0;" edge="1" parent="1" source="etPkwMSOkK_ckMGv--gX-5" target="KcJAImw3coBbb5JSBHg4-30">
          <mxGeometry width="50" height="50" relative="1" as="geometry">
            <mxPoint x="1060" y="260" as="sourcePoint" />
            <mxPoint x="1840" y="210" as="targetPoint" />
            <Array as="points">
              <mxPoint x="1050" y="230" />
              <mxPoint x="1350" y="230" />
              <mxPoint x="1350" y="170" />
              <mxPoint x="1820" y="170" />
              <mxPoint x="1820" y="200" />
            </Array>
          </mxGeometry>
        </mxCell>
        <mxCell id="etPkwMSOkK_ckMGv--gX-15" value="Sequence Instructions" style="edgeLabel;html=1;align=center;verticalAlign=middle;resizable=0;points=[];strokeColor=#006658;fontFamily=Helvetica;fontSize=11;fontColor=#5C5C5C;labelBackgroundColor=default;fillColor=#21C0A5;" vertex="1" connectable="0" parent="etPkwMSOkK_ckMGv--gX-14">
          <mxGeometry x="0.104" y="-4" relative="1" as="geometry">
            <mxPoint y="-3" as="offset" />
          </mxGeometry>
        </mxCell>
        <mxCell id="etPkwMSOkK_ckMGv--gX-16" value="" style="endArrow=classic;html=1;rounded=0;strokeColor=#006658;align=center;verticalAlign=middle;fontFamily=Helvetica;fontSize=11;fontColor=#5C5C5C;labelBackgroundColor=default;edgeStyle=orthogonalEdgeStyle;fillColor=#21C0A5;exitX=1;exitY=0.375;exitDx=0;exitDy=0;entryX=0;entryY=0.25;entryDx=0;entryDy=0;exitPerimeter=0;" edge="1" parent="1" target="KcJAImw3coBbb5JSBHg4-3">
          <mxGeometry width="50" height="50" relative="1" as="geometry">
            <mxPoint x="1060" y="230" as="sourcePoint" />
            <mxPoint x="1860" y="210" as="targetPoint" />
            <Array as="points">
              <mxPoint x="1350" y="230" />
              <mxPoint x="1350" y="310" />
              <mxPoint x="1810" y="310" />
              <mxPoint x="1810" y="550" />
            </Array>
          </mxGeometry>
        </mxCell>
        <mxCell id="etPkwMSOkK_ckMGv--gX-17" value="Sequence Instructions" style="edgeLabel;html=1;align=center;verticalAlign=middle;resizable=0;points=[];strokeColor=#006658;fontFamily=Helvetica;fontSize=11;fontColor=#5C5C5C;labelBackgroundColor=default;fillColor=#21C0A5;" vertex="1" connectable="0" parent="etPkwMSOkK_ckMGv--gX-16">
          <mxGeometry x="0.104" y="-4" relative="1" as="geometry">
            <mxPoint x="-72" y="-4" as="offset" />
          </mxGeometry>
        </mxCell>
        <mxCell id="etPkwMSOkK_ckMGv--gX-18" value="" style="group;" vertex="1" connectable="0" parent="1">
          <mxGeometry x="240" y="260" width="600" height="290" as="geometry" />
        </mxCell>
        <mxCell id="etPkwMSOkK_ckMGv--gX-19" value="" style="group" vertex="1" connectable="0" parent="etPkwMSOkK_ckMGv--gX-18">
          <mxGeometry x="110" width="490" height="290" as="geometry" />
        </mxCell>
        <mxCell id="etPkwMSOkK_ckMGv--gX-20" value="Provide Airfield Management&lt;br&gt;(GF-04-09)" style="rounded=0;whiteSpace=wrap;html=1;" vertex="1" parent="etPkwMSOkK_ckMGv--gX-19">
          <mxGeometry x="100" y="80" width="160" height="80" as="geometry" />
        </mxCell>
        <mxCell id="etPkwMSOkK_ckMGv--gX-21" value="" style="edgeStyle=orthogonalEdgeStyle;rounded=0;orthogonalLoop=1;jettySize=auto;html=1;strokeColor=#006658;fontColor=#5C5C5C;fillColor=#21C0A5;" edge="1" parent="etPkwMSOkK_ckMGv--gX-19" source="etPkwMSOkK_ckMGv--gX-22" target="etPkwMSOkK_ckMGv--gX-20">
          <mxGeometry relative="1" as="geometry" />
        </mxCell>
        <mxCell id="etPkwMSOkK_ckMGv--gX-22" value="Airfield lighting system&lt;br&gt;Ground Staff&lt;br&gt;Engineering Team" style="text;html=1;align=center;verticalAlign=middle;whiteSpace=wrap;rounded=0;" vertex="1" parent="etPkwMSOkK_ckMGv--gX-19">
          <mxGeometry x="80" y="230" width="200" height="40" as="geometry" />
        </mxCell>
        <mxCell id="etPkwMSOkK_ckMGv--gX-23" value="Airfield management procedures&lt;div&gt;Safety Rules&lt;br&gt;System Constraints (power/lighting limits)&lt;/div&gt;" style="text;html=1;align=center;verticalAlign=middle;whiteSpace=wrap;rounded=0;" vertex="1" parent="etPkwMSOkK_ckMGv--gX-19">
          <mxGeometry x="75" y="-30" width="210" height="50" as="geometry" />
        </mxCell>
        <mxCell id="etPkwMSOkK_ckMGv--gX-24" value="" style="edgeStyle=orthogonalEdgeStyle;rounded=0;orthogonalLoop=1;jettySize=auto;html=1;strokeColor=#006658;align=center;verticalAlign=middle;fontFamily=Helvetica;fontSize=11;fontColor=#5C5C5C;labelBackgroundColor=default;endArrow=classic;fillColor=#21C0A5;" edge="1" parent="etPkwMSOkK_ckMGv--gX-19" source="etPkwMSOkK_ckMGv--gX-23" target="etPkwMSOkK_ckMGv--gX-20">
          <mxGeometry relative="1" as="geometry" />
        </mxCell>
        <mxCell id="etPkwMSOkK_ckMGv--gX-31" value="" style="endArrow=classic;html=1;rounded=0;exitX=1;exitY=0.5;exitDx=0;exitDy=0;strokeColor=#006658;align=center;verticalAlign=middle;fontFamily=Helvetica;fontSize=11;fontColor=#5C5C5C;labelBackgroundColor=default;edgeStyle=orthogonalEdgeStyle;fillColor=#21C0A5;" edge="1" parent="etPkwMSOkK_ckMGv--gX-19">
          <mxGeometry width="50" height="50" relative="1" as="geometry">
            <mxPoint x="260" y="119.38" as="sourcePoint" />
            <mxPoint x="370" y="119" as="targetPoint" />
          </mxGeometry>
        </mxCell>
        <mxCell id="etPkwMSOkK_ckMGv--gX-32" value="Commands to activate, deactivate or adjust intensity of:&lt;br&gt;Runway lighting&lt;br&gt;Taxiway lighting&lt;div&gt;Stop Bars&lt;br&gt;Visual navigation aids&lt;/div&gt;" style="text;html=1;align=center;verticalAlign=middle;whiteSpace=wrap;rounded=0;" vertex="1" parent="etPkwMSOkK_ckMGv--gX-19">
          <mxGeometry x="270" y="130" width="210" height="80" as="geometry" />
        </mxCell>
        <mxCell id="etPkwMSOkK_ckMGv--gX-26" value="" style="edgeStyle=orthogonalEdgeStyle;rounded=0;orthogonalLoop=1;jettySize=auto;html=1;strokeColor=#006658;fontColor=#5C5C5C;fillColor=#21C0A5;" edge="1" parent="etPkwMSOkK_ckMGv--gX-18" target="etPkwMSOkK_ckMGv--gX-20">
          <mxGeometry relative="1" as="geometry">
            <mxPoint x="80" y="120" as="sourcePoint" />
          </mxGeometry>
        </mxCell>
        <mxCell id="etPkwMSOkK_ckMGv--gX-25" value="Requests from Ground or Controllers&lt;br&gt;Runway/Taxiway Status Information&lt;br&gt;Meteorological Data" style="text;html=1;align=center;verticalAlign=middle;whiteSpace=wrap;rounded=0;" vertex="1" parent="etPkwMSOkK_ckMGv--gX-18">
          <mxGeometry y="70" width="210" height="50" as="geometry" />
        </mxCell>
        <mxCell id="etPkwMSOkK_ckMGv--gX-28" value="" style="endArrow=classic;html=1;rounded=0;strokeColor=#006658;align=center;verticalAlign=middle;fontFamily=Helvetica;fontSize=11;fontColor=#5C5C5C;labelBackgroundColor=default;edgeStyle=orthogonalEdgeStyle;fillColor=#21C0A5;exitX=1;exitY=0.25;exitDx=0;exitDy=0;entryX=0;entryY=0.75;entryDx=0;entryDy=0;" edge="1" parent="1" source="etPkwMSOkK_ckMGv--gX-20" target="etPkwMSOkK_ckMGv--gX-5">
          <mxGeometry width="50" height="50" relative="1" as="geometry">
            <mxPoint x="300" y="330" as="sourcePoint" />
            <mxPoint x="1090" y="650" as="targetPoint" />
            <Array as="points">
              <mxPoint x="830" y="360" />
              <mxPoint x="830" y="250" />
            </Array>
          </mxGeometry>
        </mxCell>
        <mxCell id="etPkwMSOkK_ckMGv--gX-29" value="Runway Availability Updates" style="edgeLabel;html=1;align=center;verticalAlign=middle;resizable=0;points=[];strokeColor=#006658;fontFamily=Helvetica;fontSize=11;fontColor=#5C5C5C;labelBackgroundColor=default;fillColor=#21C0A5;" vertex="1" connectable="0" parent="etPkwMSOkK_ckMGv--gX-28">
          <mxGeometry x="0.104" y="-4" relative="1" as="geometry">
            <mxPoint x="-72" y="-4" as="offset" />
          </mxGeometry>
        </mxCell>
        <mxCell id="etPkwMSOkK_ckMGv--gX-33" value="" style="group;" vertex="1" connectable="0" parent="1">
          <mxGeometry x="2170" y="770" width="540" height="290" as="geometry" />
        </mxCell>
        <mxCell id="etPkwMSOkK_ckMGv--gX-34" value="" style="group" vertex="1" connectable="0" parent="etPkwMSOkK_ckMGv--gX-33">
          <mxGeometry x="110" width="430" height="290" as="geometry" />
        </mxCell>
        <mxCell id="etPkwMSOkK_ckMGv--gX-35" value="Data Logging for Incident Analysis&lt;br&gt;(GF-04-11)" style="rounded=0;whiteSpace=wrap;html=1;" vertex="1" parent="etPkwMSOkK_ckMGv--gX-34">
          <mxGeometry x="100" y="80" width="160" height="80" as="geometry" />
        </mxCell>
        <mxCell id="etPkwMSOkK_ckMGv--gX-36" value="" style="edgeStyle=orthogonalEdgeStyle;rounded=0;orthogonalLoop=1;jettySize=auto;html=1;strokeColor=#006658;fontColor=#5C5C5C;fillColor=#21C0A5;" edge="1" parent="etPkwMSOkK_ckMGv--gX-34" source="etPkwMSOkK_ckMGv--gX-37" target="etPkwMSOkK_ckMGv--gX-35">
          <mxGeometry relative="1" as="geometry" />
        </mxCell>
        <mxCell id="etPkwMSOkK_ckMGv--gX-37" value="Logging/recording system&lt;br&gt;Safety / Analysis staff" style="text;html=1;align=center;verticalAlign=middle;whiteSpace=wrap;rounded=0;" vertex="1" parent="etPkwMSOkK_ckMGv--gX-34">
          <mxGeometry x="80" y="230" width="200" height="60" as="geometry" />
        </mxCell>
        <mxCell id="etPkwMSOkK_ckMGv--gX-38" value="Local Safety Management System Policies, incident logging standards&lt;br&gt;Regulatory requirements for record retention" style="text;html=1;align=center;verticalAlign=middle;whiteSpace=wrap;rounded=0;" vertex="1" parent="etPkwMSOkK_ckMGv--gX-34">
          <mxGeometry x="90" y="-50" width="180" height="70" as="geometry" />
        </mxCell>
        <mxCell id="etPkwMSOkK_ckMGv--gX-39" value="" style="edgeStyle=orthogonalEdgeStyle;rounded=0;orthogonalLoop=1;jettySize=auto;html=1;strokeColor=#006658;align=center;verticalAlign=middle;fontFamily=Helvetica;fontSize=11;fontColor=#5C5C5C;labelBackgroundColor=default;endArrow=classic;fillColor=#21C0A5;" edge="1" parent="etPkwMSOkK_ckMGv--gX-34" source="etPkwMSOkK_ckMGv--gX-38" target="etPkwMSOkK_ckMGv--gX-35">
          <mxGeometry relative="1" as="geometry" />
        </mxCell>
        <mxCell id="etPkwMSOkK_ckMGv--gX-40" value="Feedback to safety teams&lt;br&gt;Incident records, replay data, logs for invstigation" style="text;html=1;align=center;verticalAlign=middle;whiteSpace=wrap;rounded=0;" vertex="1" parent="etPkwMSOkK_ckMGv--gX-34">
          <mxGeometry x="270" y="50" width="160" height="75" as="geometry" />
        </mxCell>
        <mxCell id="etPkwMSOkK_ckMGv--gX-41" value="" style="endArrow=classic;html=1;rounded=0;exitX=1;exitY=0.5;exitDx=0;exitDy=0;strokeColor=#006658;fillColor=#21C0A5;align=center;verticalAlign=middle;fontFamily=Helvetica;fontSize=11;fontColor=#5C5C5C;labelBackgroundColor=default;edgeStyle=orthogonalEdgeStyle;" edge="1" parent="etPkwMSOkK_ckMGv--gX-33" source="etPkwMSOkK_ckMGv--gX-35">
          <mxGeometry width="50" height="50" relative="1" as="geometry">
            <mxPoint x="310" y="280" as="sourcePoint" />
            <mxPoint x="540" y="120" as="targetPoint" />
          </mxGeometry>
        </mxCell>
        <mxCell id="etPkwMSOkK_ckMGv--gX-44" value="" style="endArrow=classic;html=1;rounded=0;strokeColor=#006658;align=center;verticalAlign=middle;fontFamily=Helvetica;fontSize=11;fontColor=#5C5C5C;labelBackgroundColor=default;edgeStyle=orthogonalEdgeStyle;fillColor=#21C0A5;exitX=1.022;exitY=0.651;exitDx=0;exitDy=0;exitPerimeter=0;entryX=0;entryY=0.25;entryDx=0;entryDy=0;" edge="1" parent="1" source="KcJAImw3coBbb5JSBHg4-3" target="etPkwMSOkK_ckMGv--gX-35">
          <mxGeometry width="50" height="50" relative="1" as="geometry">
            <mxPoint x="2090" y="820" as="sourcePoint" />
            <mxPoint x="2140" y="770" as="targetPoint" />
            <Array as="points">
              <mxPoint x="2230" y="582" />
              <mxPoint x="2230" y="870" />
            </Array>
          </mxGeometry>
        </mxCell>
        <mxCell id="etPkwMSOkK_ckMGv--gX-45" value="Voice Communications Logs" style="edgeLabel;html=1;align=center;verticalAlign=middle;resizable=0;points=[];strokeColor=#006658;fontFamily=Helvetica;fontSize=11;fontColor=#5C5C5C;labelBackgroundColor=default;fillColor=#21C0A5;" vertex="1" connectable="0" parent="etPkwMSOkK_ckMGv--gX-44">
          <mxGeometry x="0.1317" y="-1" relative="1" as="geometry">
            <mxPoint x="-89" y="-137" as="offset" />
          </mxGeometry>
        </mxCell>
        <mxCell id="etPkwMSOkK_ckMGv--gX-46" value="" style="endArrow=classic;html=1;rounded=0;strokeColor=#006658;align=center;verticalAlign=middle;fontFamily=Helvetica;fontSize=11;fontColor=#5C5C5C;labelBackgroundColor=default;edgeStyle=orthogonalEdgeStyle;fillColor=#21C0A5;exitX=1;exitY=0.75;exitDx=0;exitDy=0;entryX=0;entryY=0.25;entryDx=0;entryDy=0;" edge="1" parent="1" source="KcJAImw3coBbb5JSBHg4-30" target="etPkwMSOkK_ckMGv--gX-35">
          <mxGeometry width="50" height="50" relative="1" as="geometry">
            <mxPoint x="2090" y="820" as="sourcePoint" />
            <mxPoint x="2140" y="770" as="targetPoint" />
            <Array as="points">
              <mxPoint x="2230" y="240" />
              <mxPoint x="2230" y="870" />
            </Array>
          </mxGeometry>
        </mxCell>
        <mxCell id="etPkwMSOkK_ckMGv--gX-47" value="Voice Communications Logs" style="edgeLabel;html=1;align=center;verticalAlign=middle;resizable=0;points=[];strokeColor=#006658;fontFamily=Helvetica;fontSize=11;fontColor=#5C5C5C;labelBackgroundColor=default;fillColor=#21C0A5;" vertex="1" connectable="0" parent="etPkwMSOkK_ckMGv--gX-46">
          <mxGeometry x="-0.1875" y="-2" relative="1" as="geometry">
            <mxPoint as="offset" />
          </mxGeometry>
        </mxCell>
        <mxCell id="etPkwMSOkK_ckMGv--gX-48" value="" style="endArrow=classic;html=1;rounded=0;strokeColor=#006658;align=center;verticalAlign=middle;fontFamily=Helvetica;fontSize=11;fontColor=#5C5C5C;labelBackgroundColor=default;edgeStyle=orthogonalEdgeStyle;fillColor=#21C0A5;exitX=1;exitY=0.25;exitDx=0;exitDy=0;entryX=0;entryY=0.5;entryDx=0;entryDy=0;" edge="1" parent="1" source="KcJAImw3coBbb5JSBHg4-43" target="etPkwMSOkK_ckMGv--gX-35">
          <mxGeometry width="50" height="50" relative="1" as="geometry">
            <mxPoint x="1920" y="730" as="sourcePoint" />
            <mxPoint x="1970" y="680" as="targetPoint" />
            <Array as="points">
              <mxPoint x="1730" y="980" />
              <mxPoint x="1730" y="890" />
            </Array>
          </mxGeometry>
        </mxCell>
        <mxCell id="etPkwMSOkK_ckMGv--gX-49" value="Data Communication Logs" style="edgeLabel;html=1;align=center;verticalAlign=middle;resizable=0;points=[];strokeColor=#006658;fontFamily=Helvetica;fontSize=11;fontColor=#5C5C5C;labelBackgroundColor=default;fillColor=#21C0A5;" vertex="1" connectable="0" parent="etPkwMSOkK_ckMGv--gX-48">
          <mxGeometry x="-0.5443" relative="1" as="geometry">
            <mxPoint x="170" y="-6" as="offset" />
          </mxGeometry>
        </mxCell>
        <mxCell id="etPkwMSOkK_ckMGv--gX-50" value="" style="endArrow=classic;html=1;rounded=0;strokeColor=#006658;align=center;verticalAlign=middle;fontFamily=Helvetica;fontSize=11;fontColor=#5C5C5C;labelBackgroundColor=default;edgeStyle=orthogonalEdgeStyle;fillColor=#21C0A5;entryX=0;entryY=0.25;entryDx=0;entryDy=0;exitX=1;exitY=0.75;exitDx=0;exitDy=0;" edge="1" parent="1" source="KcJAImw3coBbb5JSBHg4-17" target="etPkwMSOkK_ckMGv--gX-35">
          <mxGeometry width="50" height="50" relative="1" as="geometry">
            <mxPoint x="1630" y="750" as="sourcePoint" />
            <mxPoint x="2390" y="920" as="targetPoint" />
            <Array as="points">
              <mxPoint x="1420" y="630" />
              <mxPoint x="1420" y="780" />
              <mxPoint x="1730" y="780" />
              <mxPoint x="1730" y="870" />
            </Array>
          </mxGeometry>
        </mxCell>
        <mxCell id="etPkwMSOkK_ckMGv--gX-51" value="Flight Data History" style="edgeLabel;html=1;align=center;verticalAlign=middle;resizable=0;points=[];strokeColor=#006658;fontFamily=Helvetica;fontSize=11;fontColor=#5C5C5C;labelBackgroundColor=default;fillColor=#21C0A5;" vertex="1" connectable="0" parent="etPkwMSOkK_ckMGv--gX-50">
          <mxGeometry x="-0.5443" relative="1" as="geometry">
            <mxPoint as="offset" />
          </mxGeometry>
        </mxCell>
        <mxCell id="etPkwMSOkK_ckMGv--gX-52" value="" style="endArrow=classic;html=1;rounded=0;strokeColor=#006658;align=center;verticalAlign=middle;fontFamily=Helvetica;fontSize=11;fontColor=#5C5C5C;labelBackgroundColor=default;edgeStyle=orthogonalEdgeStyle;fillColor=#21C0A5;exitX=1;exitY=0.75;exitDx=0;exitDy=0;" edge="1" parent="1" source="KcJAImw3coBbb5JSBHg4-58">
          <mxGeometry width="50" height="50" relative="1" as="geometry">
            <mxPoint x="1540" y="970" as="sourcePoint" />
            <mxPoint x="2380" y="910" as="targetPoint" />
            <Array as="points">
              <mxPoint x="1120" y="950" />
              <mxPoint x="1120" y="1190" />
              <mxPoint x="1810" y="1190" />
              <mxPoint x="1810" y="910" />
            </Array>
          </mxGeometry>
        </mxCell>
        <mxCell id="etPkwMSOkK_ckMGv--gX-53" value="Surveillance Data" style="edgeLabel;html=1;align=center;verticalAlign=middle;resizable=0;points=[];strokeColor=#006658;fontFamily=Helvetica;fontSize=11;fontColor=#5C5C5C;labelBackgroundColor=default;fillColor=#21C0A5;" vertex="1" connectable="0" parent="etPkwMSOkK_ckMGv--gX-52">
          <mxGeometry x="-0.2381" y="-6" relative="1" as="geometry">
            <mxPoint x="-1" y="-5" as="offset" />
          </mxGeometry>
        </mxCell>
        <mxCell id="etPkwMSOkK_ckMGv--gX-54" value="" style="group;" vertex="1" connectable="0" parent="1">
          <mxGeometry x="70" y="640" width="600" height="290" as="geometry" />
        </mxCell>
        <mxCell id="etPkwMSOkK_ckMGv--gX-55" value="" style="group" vertex="1" connectable="0" parent="etPkwMSOkK_ckMGv--gX-54">
          <mxGeometry x="110" width="490" height="290" as="geometry" />
        </mxCell>
        <mxCell id="etPkwMSOkK_ckMGv--gX-56" value="Manage Aerodrome Ground Surveillance&lt;br&gt;(GF-04-05)" style="rounded=0;whiteSpace=wrap;html=1;" vertex="1" parent="etPkwMSOkK_ckMGv--gX-55">
          <mxGeometry x="100" y="80" width="160" height="80" as="geometry" />
        </mxCell>
        <mxCell id="etPkwMSOkK_ckMGv--gX-57" value="" style="edgeStyle=orthogonalEdgeStyle;rounded=0;orthogonalLoop=1;jettySize=auto;html=1;strokeColor=#006658;fontColor=#5C5C5C;fillColor=#21C0A5;" edge="1" parent="etPkwMSOkK_ckMGv--gX-55" source="etPkwMSOkK_ckMGv--gX-58" target="etPkwMSOkK_ckMGv--gX-56">
          <mxGeometry relative="1" as="geometry" />
        </mxCell>
        <mxCell id="etPkwMSOkK_ckMGv--gX-58" value="Surface Movement Radar&lt;br&gt;Controller Displays&lt;br&gt;ATC Personnel&lt;br&gt;Flight Data Processing System" style="text;html=1;align=center;verticalAlign=middle;whiteSpace=wrap;rounded=0;" vertex="1" parent="etPkwMSOkK_ckMGv--gX-55">
          <mxGeometry x="80" y="230" width="200" height="40" as="geometry" />
        </mxCell>
        <mxCell id="etPkwMSOkK_ckMGv--gX-59" value="Ground movement procedures&lt;br&gt;Separation standards on taxiways and runways&lt;br&gt;Update rates of SMR" style="text;html=1;align=center;verticalAlign=middle;whiteSpace=wrap;rounded=0;" vertex="1" parent="etPkwMSOkK_ckMGv--gX-55">
          <mxGeometry x="75" y="-39" width="210" height="50" as="geometry" />
        </mxCell>
        <mxCell id="etPkwMSOkK_ckMGv--gX-60" value="" style="edgeStyle=orthogonalEdgeStyle;rounded=0;orthogonalLoop=1;jettySize=auto;html=1;strokeColor=#006658;align=center;verticalAlign=middle;fontFamily=Helvetica;fontSize=11;fontColor=#5C5C5C;labelBackgroundColor=default;endArrow=classic;fillColor=#21C0A5;" edge="1" parent="etPkwMSOkK_ckMGv--gX-55" source="etPkwMSOkK_ckMGv--gX-59" target="etPkwMSOkK_ckMGv--gX-56">
          <mxGeometry relative="1" as="geometry" />
        </mxCell>
        <mxCell id="etPkwMSOkK_ckMGv--gX-61" value="" style="endArrow=classic;html=1;rounded=0;exitX=1;exitY=0.5;exitDx=0;exitDy=0;strokeColor=#006658;align=center;verticalAlign=middle;fontFamily=Helvetica;fontSize=11;fontColor=#5C5C5C;labelBackgroundColor=default;edgeStyle=orthogonalEdgeStyle;fillColor=#21C0A5;" edge="1" parent="etPkwMSOkK_ckMGv--gX-55">
          <mxGeometry width="50" height="50" relative="1" as="geometry">
            <mxPoint x="260" y="119.38" as="sourcePoint" />
            <mxPoint x="370" y="119" as="targetPoint" />
          </mxGeometry>
        </mxCell>
        <mxCell id="etPkwMSOkK_ckMGv--gX-62" value="Ground Position Tracks for controllers" style="text;html=1;align=center;verticalAlign=middle;whiteSpace=wrap;rounded=0;" vertex="1" parent="etPkwMSOkK_ckMGv--gX-55">
          <mxGeometry x="260" y="120" width="210" height="20" as="geometry" />
        </mxCell>
        <mxCell id="etPkwMSOkK_ckMGv--gX-63" value="" style="edgeStyle=orthogonalEdgeStyle;rounded=0;orthogonalLoop=1;jettySize=auto;html=1;strokeColor=#006658;fontColor=#5C5C5C;fillColor=#21C0A5;" edge="1" parent="etPkwMSOkK_ckMGv--gX-54" target="etPkwMSOkK_ckMGv--gX-56">
          <mxGeometry relative="1" as="geometry">
            <mxPoint x="80" y="120" as="sourcePoint" />
          </mxGeometry>
        </mxCell>
        <mxCell id="etPkwMSOkK_ckMGv--gX-64" value="Surface Movement Radar or Ground Sensors / Cameras&lt;br&gt;Ground track data&lt;br&gt;Flight Strips" style="text;html=1;align=center;verticalAlign=middle;whiteSpace=wrap;rounded=0;" vertex="1" parent="etPkwMSOkK_ckMGv--gX-54">
          <mxGeometry y="65" width="210" height="50" as="geometry" />
        </mxCell>
        <mxCell id="etPkwMSOkK_ckMGv--gX-65" value="" style="endArrow=classic;html=1;rounded=0;strokeColor=#006658;align=center;verticalAlign=middle;fontFamily=Helvetica;fontSize=11;fontColor=#5C5C5C;labelBackgroundColor=default;edgeStyle=orthogonalEdgeStyle;fillColor=#21C0A5;exitX=1;exitY=0.25;exitDx=0;exitDy=0;" edge="1" parent="1" source="etPkwMSOkK_ckMGv--gX-56">
          <mxGeometry width="50" height="50" relative="1" as="geometry">
            <mxPoint x="530" y="730" as="sourcePoint" />
            <mxPoint x="1250" y="630" as="targetPoint" />
            <Array as="points">
              <mxPoint x="1040" y="740" />
              <mxPoint x="1040" y="630" />
            </Array>
          </mxGeometry>
        </mxCell>
        <mxCell id="etPkwMSOkK_ckMGv--gX-66" value="Updated Flight Strips and Flight Data" style="edgeLabel;html=1;align=center;verticalAlign=middle;resizable=0;points=[];strokeColor=#006658;fontFamily=Helvetica;fontSize=11;fontColor=#5C5C5C;labelBackgroundColor=default;fillColor=#21C0A5;" vertex="1" connectable="0" parent="etPkwMSOkK_ckMGv--gX-65">
          <mxGeometry x="-0.3114" relative="1" as="geometry">
            <mxPoint x="-1" as="offset" />
          </mxGeometry>
        </mxCell>
        <mxCell id="etPkwMSOkK_ckMGv--gX-68" value="" style="endArrow=classic;html=1;rounded=0;strokeColor=#006658;align=center;verticalAlign=middle;fontFamily=Helvetica;fontSize=11;fontColor=#5C5C5C;labelBackgroundColor=default;edgeStyle=orthogonalEdgeStyle;fillColor=#21C0A5;exitX=0.997;exitY=0.872;exitDx=0;exitDy=0;exitPerimeter=0;entryX=0;entryY=0.75;entryDx=0;entryDy=0;" edge="1" parent="1" source="etPkwMSOkK_ckMGv--gX-56" target="etPkwMSOkK_ckMGv--gX-35">
          <mxGeometry width="50" height="50" relative="1" as="geometry">
            <mxPoint x="1000" y="1210" as="sourcePoint" />
            <mxPoint x="1880" y="1240" as="targetPoint" />
            <Array as="points">
              <mxPoint x="520" y="790" />
              <mxPoint x="520" y="1670" />
              <mxPoint x="2020" y="1670" />
              <mxPoint x="2020" y="910" />
            </Array>
          </mxGeometry>
        </mxCell>
        <mxCell id="etPkwMSOkK_ckMGv--gX-69" value="Data Logs" style="edgeLabel;html=1;align=center;verticalAlign=middle;resizable=0;points=[];strokeColor=#006658;fontFamily=Helvetica;fontSize=11;fontColor=#5C5C5C;labelBackgroundColor=default;fillColor=#21C0A5;" vertex="1" connectable="0" parent="etPkwMSOkK_ckMGv--gX-68">
          <mxGeometry x="-0.0723" y="-5" relative="1" as="geometry">
            <mxPoint x="-732" y="-141" as="offset" />
          </mxGeometry>
        </mxCell>
        <mxCell id="etPkwMSOkK_ckMGv--gX-70" value="" style="group;" vertex="1" connectable="0" parent="1">
          <mxGeometry x="1280" y="1290" width="610" height="290" as="geometry" />
        </mxCell>
        <mxCell id="etPkwMSOkK_ckMGv--gX-71" value="" style="group" vertex="1" connectable="0" parent="etPkwMSOkK_ckMGv--gX-70">
          <mxGeometry x="110" width="500" height="290" as="geometry" />
        </mxCell>
        <mxCell id="etPkwMSOkK_ckMGv--gX-72" value="Manage Aerodrome Control Alerts&lt;br&gt;(GF-04-08)" style="rounded=0;whiteSpace=wrap;html=1;" vertex="1" parent="etPkwMSOkK_ckMGv--gX-71">
          <mxGeometry x="100" y="80" width="160" height="80" as="geometry" />
        </mxCell>
        <mxCell id="etPkwMSOkK_ckMGv--gX-73" value="" style="edgeStyle=orthogonalEdgeStyle;rounded=0;orthogonalLoop=1;jettySize=auto;html=1;strokeColor=#006658;fontColor=#5C5C5C;fillColor=#21C0A5;" edge="1" parent="etPkwMSOkK_ckMGv--gX-71" target="etPkwMSOkK_ckMGv--gX-72">
          <mxGeometry relative="1" as="geometry">
            <mxPoint x="180" y="190" as="sourcePoint" />
          </mxGeometry>
        </mxCell>
        <mxCell id="etPkwMSOkK_ckMGv--gX-74" value="Alert Display/Management System&lt;br&gt;Controller Workstation&lt;br&gt;Voice/Data Comms (GF-04-01/02/03)&lt;div&gt;&lt;br/&gt;&lt;/div&gt;" style="text;html=1;align=center;verticalAlign=middle;whiteSpace=wrap;rounded=0;" vertex="1" parent="etPkwMSOkK_ckMGv--gX-71">
          <mxGeometry x="80" y="200" width="200" height="60" as="geometry" />
        </mxCell>
        <mxCell id="etPkwMSOkK_ckMGv--gX-75" value="Alert Managment Procedures&lt;br&gt;Severity Thresholds and Safety Regulations&lt;br&gt;Local procedures for Notification" style="text;html=1;align=center;verticalAlign=middle;whiteSpace=wrap;rounded=0;" vertex="1" parent="etPkwMSOkK_ckMGv--gX-71">
          <mxGeometry x="90" y="-30" width="180" height="50" as="geometry" />
        </mxCell>
        <mxCell id="etPkwMSOkK_ckMGv--gX-76" value="" style="edgeStyle=orthogonalEdgeStyle;rounded=0;orthogonalLoop=1;jettySize=auto;html=1;strokeColor=#006658;align=center;verticalAlign=middle;fontFamily=Helvetica;fontSize=11;fontColor=#5C5C5C;labelBackgroundColor=default;endArrow=classic;fillColor=#21C0A5;" edge="1" parent="etPkwMSOkK_ckMGv--gX-71" source="etPkwMSOkK_ckMGv--gX-75" target="etPkwMSOkK_ckMGv--gX-72">
          <mxGeometry relative="1" as="geometry" />
        </mxCell>
        <mxCell id="etPkwMSOkK_ckMGv--gX-77" value="Alerts / Notifications to Controllers&lt;br&gt;Recommended Action or Coordination&lt;br&gt;Updates to Flight Data &lt;b&gt;&lt;u&gt;(GF-04-06)&lt;/u&gt;&lt;/b&gt;" style="text;html=1;align=center;verticalAlign=middle;whiteSpace=wrap;rounded=0;" vertex="1" parent="etPkwMSOkK_ckMGv--gX-71">
          <mxGeometry x="280" y="63" width="200" height="40" as="geometry" />
        </mxCell>
        <mxCell id="etPkwMSOkK_ckMGv--gX-78" value="Flight Data from &lt;b&gt;&lt;u&gt;GF-04-06&lt;/u&gt;&lt;/b&gt;&lt;br&gt;Operational Threshold (trigger point for alert)" style="text;html=1;align=center;verticalAlign=middle;whiteSpace=wrap;rounded=0;" vertex="1" parent="etPkwMSOkK_ckMGv--gX-71">
          <mxGeometry x="-77" y="70" width="167" height="47" as="geometry" />
        </mxCell>
        <mxCell id="etPkwMSOkK_ckMGv--gX-79" value="" style="endArrow=classic;html=1;rounded=0;exitX=1;exitY=0.5;exitDx=0;exitDy=0;strokeColor=#006658;align=center;verticalAlign=middle;fontFamily=Helvetica;fontSize=11;fontColor=#5C5C5C;labelBackgroundColor=default;edgeStyle=orthogonalEdgeStyle;fillColor=#21C0A5;" edge="1" parent="etPkwMSOkK_ckMGv--gX-70" source="etPkwMSOkK_ckMGv--gX-72">
          <mxGeometry width="50" height="50" relative="1" as="geometry">
            <mxPoint x="310" y="280" as="sourcePoint" />
            <mxPoint x="540" y="120" as="targetPoint" />
          </mxGeometry>
        </mxCell>
        <mxCell id="etPkwMSOkK_ckMGv--gX-80" value="" style="edgeStyle=orthogonalEdgeStyle;rounded=0;orthogonalLoop=1;jettySize=auto;html=1;strokeColor=#006658;fontColor=#5C5C5C;fillColor=#21C0A5;" edge="1" parent="etPkwMSOkK_ckMGv--gX-70" target="etPkwMSOkK_ckMGv--gX-72">
          <mxGeometry relative="1" as="geometry">
            <mxPoint x="80" y="120" as="sourcePoint" />
          </mxGeometry>
        </mxCell>
        <mxCell id="etPkwMSOkK_ckMGv--gX-81" value="" style="group;" vertex="1" connectable="0" parent="1">
          <mxGeometry x="610" y="1280" width="540" height="290" as="geometry" />
        </mxCell>
        <mxCell id="etPkwMSOkK_ckMGv--gX-82" value="" style="group" vertex="1" connectable="0" parent="etPkwMSOkK_ckMGv--gX-81">
          <mxGeometry x="110" width="430" height="290" as="geometry" />
        </mxCell>
        <mxCell id="etPkwMSOkK_ckMGv--gX-83" value="Visual Observation&lt;br&gt;(GF-04-07)" style="rounded=0;whiteSpace=wrap;html=1;" vertex="1" parent="etPkwMSOkK_ckMGv--gX-82">
          <mxGeometry x="100" y="80" width="160" height="80" as="geometry" />
        </mxCell>
        <mxCell id="etPkwMSOkK_ckMGv--gX-84" value="" style="edgeStyle=orthogonalEdgeStyle;rounded=0;orthogonalLoop=1;jettySize=auto;html=1;strokeColor=#006658;fontColor=#5C5C5C;fillColor=#21C0A5;" edge="1" parent="etPkwMSOkK_ckMGv--gX-82" target="etPkwMSOkK_ckMGv--gX-83">
          <mxGeometry relative="1" as="geometry">
            <mxPoint x="180" y="190" as="sourcePoint" />
          </mxGeometry>
        </mxCell>
        <mxCell id="etPkwMSOkK_ckMGv--gX-85" value="Data communication system&lt;br&gt;Controller workstations&lt;br&gt;Software" style="text;html=1;align=center;verticalAlign=middle;whiteSpace=wrap;rounded=0;" vertex="1" parent="etPkwMSOkK_ckMGv--gX-82">
          <mxGeometry x="80" y="184" width="200" height="60" as="geometry" />
        </mxCell>
        <mxCell id="etPkwMSOkK_ckMGv--gX-86" value="Data communication standards&lt;br&gt;Local Procedures" style="text;html=1;align=center;verticalAlign=middle;whiteSpace=wrap;rounded=0;" vertex="1" parent="etPkwMSOkK_ckMGv--gX-82">
          <mxGeometry x="90" y="-30" width="180" height="50" as="geometry" />
        </mxCell>
        <mxCell id="etPkwMSOkK_ckMGv--gX-87" value="" style="edgeStyle=orthogonalEdgeStyle;rounded=0;orthogonalLoop=1;jettySize=auto;html=1;strokeColor=#006658;align=center;verticalAlign=middle;fontFamily=Helvetica;fontSize=11;fontColor=#5C5C5C;labelBackgroundColor=default;endArrow=classic;fillColor=#21C0A5;" edge="1" parent="etPkwMSOkK_ckMGv--gX-82" source="etPkwMSOkK_ckMGv--gX-86" target="etPkwMSOkK_ckMGv--gX-83">
          <mxGeometry relative="1" as="geometry" />
        </mxCell>
        <mxCell id="etPkwMSOkK_ckMGv--gX-88" value="Digital messages to aircraft or other facilities" style="text;html=1;align=center;verticalAlign=middle;whiteSpace=wrap;rounded=0;" vertex="1" parent="etPkwMSOkK_ckMGv--gX-82">
          <mxGeometry x="270" y="117" width="160" height="40" as="geometry" />
        </mxCell>
        <mxCell id="etPkwMSOkK_ckMGv--gX-89" value="Approach/departure messages from external units" style="text;html=1;align=center;verticalAlign=middle;whiteSpace=wrap;rounded=0;" vertex="1" parent="etPkwMSOkK_ckMGv--gX-82">
          <mxGeometry x="-117" y="75" width="167" height="47" as="geometry" />
        </mxCell>
        <mxCell id="etPkwMSOkK_ckMGv--gX-90" value="" style="endArrow=classic;html=1;rounded=0;exitX=1;exitY=0.5;exitDx=0;exitDy=0;strokeColor=#006658;align=center;verticalAlign=middle;fontFamily=Helvetica;fontSize=11;fontColor=#5C5C5C;labelBackgroundColor=default;edgeStyle=orthogonalEdgeStyle;fillColor=#21C0A5;" edge="1" parent="etPkwMSOkK_ckMGv--gX-81" source="etPkwMSOkK_ckMGv--gX-83">
          <mxGeometry width="50" height="50" relative="1" as="geometry">
            <mxPoint x="310" y="280" as="sourcePoint" />
            <mxPoint x="540" y="120" as="targetPoint" />
          </mxGeometry>
        </mxCell>
        <mxCell id="etPkwMSOkK_ckMGv--gX-91" value="" style="edgeStyle=orthogonalEdgeStyle;rounded=0;orthogonalLoop=1;jettySize=auto;html=1;strokeColor=#006658;fontColor=#5C5C5C;fillColor=#21C0A5;" edge="1" parent="etPkwMSOkK_ckMGv--gX-81" target="etPkwMSOkK_ckMGv--gX-83">
          <mxGeometry relative="1" as="geometry">
            <mxPoint x="80" y="120" as="sourcePoint" />
          </mxGeometry>
        </mxCell>
        <mxCell id="etPkwMSOkK_ckMGv--gX-94" value="" style="endArrow=classic;html=1;rounded=0;strokeColor=#006658;align=center;verticalAlign=middle;fontFamily=Helvetica;fontSize=11;fontColor=#5C5C5C;labelBackgroundColor=default;edgeStyle=orthogonalEdgeStyle;fillColor=#21C0A5;exitX=1;exitY=0.75;exitDx=0;exitDy=0;entryX=0;entryY=0.75;entryDx=0;entryDy=0;" edge="1" parent="1" source="etPkwMSOkK_ckMGv--gX-72" target="etPkwMSOkK_ckMGv--gX-35">
          <mxGeometry width="50" height="50" relative="1" as="geometry">
            <mxPoint x="2120" y="1300" as="sourcePoint" />
            <mxPoint x="1930" y="980" as="targetPoint" />
            <Array as="points">
              <mxPoint x="1940" y="1430" />
              <mxPoint x="1940" y="910" />
            </Array>
          </mxGeometry>
        </mxCell>
        <mxCell id="etPkwMSOkK_ckMGv--gX-95" value="Incident Logs" style="edgeLabel;html=1;align=center;verticalAlign=middle;resizable=0;points=[];strokeColor=#006658;fontFamily=Helvetica;fontSize=11;fontColor=#5C5C5C;labelBackgroundColor=default;fillColor=#21C0A5;" vertex="1" connectable="0" parent="etPkwMSOkK_ckMGv--gX-94">
          <mxGeometry x="-0.3135" y="-1" relative="1" as="geometry">
            <mxPoint x="-1" as="offset" />
          </mxGeometry>
        </mxCell>
      </root>
    </mxGraphModel>
  </diagram>
</mxfile>
